<?xml version="1.0" encoding="UTF-8" standalone="no"?>
<svg
   width="44"
   height="44"
   viewBox="0 0 44 44"
   fill="none"
   version="1.1"
   id="svg6"
   sodipodi:docname="44x44-logo-white.svg"
   inkscape:version="1.1.2 (b8e25be8, 2022-02-05)"
   xmlns:inkscape="http://www.inkscape.org/namespaces/inkscape"
   xmlns:sodipodi="http://sodipodi.sourceforge.net/DTD/sodipodi-0.dtd"
   xmlns="http://www.w3.org/2000/svg"
   xmlns:svg="http://www.w3.org/2000/svg">
  <defs
     id="defs10" />
  <sodipodi:namedview
     id="namedview8"
     pagecolor="#ffffff"
     bordercolor="#666666"
     borderopacity="1.0"
     inkscape:pageshadow="2"
     inkscape:pageopacity="0.0"
     inkscape:pagecheckerboard="0"
     showgrid="false"
     inkscape:zoom="2.2584355"
     inkscape:cx="127.30051"
     inkscape:cy="164.05162"
     inkscape:window-width="1792"
     inkscape:window-height="1067"
     inkscape:window-x="20"
     inkscape:window-y="40"
     inkscape:window-maximized="0"
     inkscape:current-layer="svg6"
     width="44px" />
  <path
     fill-rule="evenodd"
     clip-rule="evenodd"
     d="m 22.110011,3.1410354 c -10.72099,0 -19.41176,8.6907696 -19.41176,19.4117596 0,10.72099 8.69077,19.41176 19.41176,19.41176 10.72099,0 19.41176,-8.69077 19.41176,-19.41176 0,-10.72099 -8.69077,-19.4117596 -19.41176,-19.4117596 z"
     stroke="#000000"
     stroke-width="5.17647"
     id="path2" />
  <path
     d="m 24.721931,28.187515 c -0.18674,0.24614 -0.46679,0.40454 -0.78061,0.40454 -0.0308,0 -0.0614,-0.002 -0.0916,-0.005 -0.0519,-0.006 -0.0802,-0.0106 -0.10832,-0.0168 -0.0348,-0.008 -0.0607,-0.0158 -0.0862,-0.0245 -0.049,-0.0171 -0.0709,-0.0257 -0.0921,-0.0353 -0.0498,-0.0241 -0.0674,-0.0333 -0.0849,-0.0432 -0.0475,-0.0289 -0.0599,-0.0374 -0.0722,-0.0461 -0.0205,-0.0145 -0.0409,-0.0295 -0.0604,-0.0457 -0.0383,-0.0318 -0.0518,-0.0442 -0.0651,-0.0569 -0.0405,-0.0402 -0.0664,-0.0691 -0.091,-0.0993 -0.0465,-0.0588 -0.0842,-0.11608 -0.11686,-0.17729 l -1.14374,-1.83778 -1.14322,1.83778 c -0.17936,0.32664 -0.50367,0.55026 -0.87625,0.55026 -0.37387,0 -0.69973,-0.22531 -0.87379,-0.55919 l -4.99995,-7.28394 c -0.16435,-0.19826 -0.26542,-0.46097 -0.26542,-0.75098 0,-0.61393 0.45126,-1.11203 1.00786,-1.11203 0.36015,0 0.67553,0.20926 0.85386,0.52321 l 4.2205,6.23661 1.188,-1.93445 c 0.17121,-0.34475 0.50354,-0.57898 0.88518,-0.57898 0.34915,0 0.65702,0.19644 0.83781,0.49435 l 1.22527,2.01119 6.62161,-9.48019 c 0.18001,-0.30502 0.4906,-0.50678 0.84493,-0.50678 0.5566,0 1.00773,0.49785 1.00773,1.11178 0,0.2684 -0.0858,0.51428 -0.22906,0.7062 z"
     fill="#000000"
     stroke="#000000"
     stroke-width="1.29412"
     id="path4" />
  <path
     style="fill:#ffffff;stroke-width:0.0611961"
     d="m 21.039081,44.484495 c -5.42005,-0.23997 -10.54606,-2.51665 -14.44509,-6.41568 -3.1942,-3.19421 -5.27176,-7.13448 -6.08587003,-11.54241 -0.46269,-2.50519 -0.46194,-5.44016 0.002,-7.95681 C 1.735691,11.922035 5.995871,6.1754054 12.012621,3.0536854 c 1.95554,-1.0146 3.96182,-1.70393 6.11416,-2.10075003 2.55272,-0.47062 5.41368,-0.47062 7.9664,0 6.64908,1.22585003 12.39347,5.48437003 15.51591,11.50249963 1.28085,2.46869 2.05497,5.05348 2.34737,7.83779 0.12369,1.17787 0.12369,3.34127 0,4.51914 -0.72482,6.90204 -4.61213,12.99424 -10.5864,16.59102 -3.68464,2.21833 -7.91936,3.27644 -12.33101,3.08111 z m 2.41506,-5.13556 c 3.38605,-0.27495 6.54488,-1.52487 9.2122,-3.64519 0.79708,-0.63361 2.23339,-2.11124 2.84925,-2.9312 1.82126,-2.42486 2.85759,-4.93514 3.30953,-8.01669 0.15045,-1.02582 0.15045,-3.3803 0,-4.40612 -0.56913,-3.88055 -2.12341,-7.01579 -4.80984,-9.70221 -2.68657,-2.6865696 -5.83207,-4.2456796 -9.70221,-4.8090296 -1.0317,-0.15018 -3.38738,-0.15073 -4.40612,-0.001 -2.52146,0.37053 -4.68338,1.1439 -6.70097,2.39709 -2.08924,1.29768 -4.1223,3.3310396 -5.41343,5.4141996 -3.76468,6.07408 -3.29758,13.85878 1.16766,19.46036 0.53358,0.66937 1.92531,2.06095 2.59347,2.59318 3.37943,2.69193 7.62739,3.99362 11.90046,3.64664 z"
     id="path160" />
  <path
     style="fill:#ffffff;stroke-width:0.0611961"
     d="m 21.008481,44.455705 c -2.79163,-0.20988 -4.65232,-0.61045 -6.85396,-1.47551 -5.65612,-2.22237 -10.24888,-6.80143 -12.44786,-12.41071 -1.98421003,-5.06145 -2.01992003,-10.60662 -0.10166,-15.7886 0.32864,-0.88777 1.35314,-2.93825 1.911,-3.82475 1.85754,-2.9518096 4.46359,-5.5067496 7.37358,-7.2289496 0.88611,-0.52441 2.63597,-1.37602 3.44852,-1.67828 4.22354,-1.57114003 8.69227,-1.84353003 12.97358,-0.7908 5.5561,1.36619 10.34007,4.83037 13.38823,9.6947196 1.73643,2.77104 2.80637,5.83546 3.19545,9.15213 0.12832,1.09389 0.12718,3.79111 -0.002,4.91354 -0.3583,3.11107 -1.3615,6.06675 -2.99074,8.81148 -1.57258,2.64926 -4.01617,5.20777 -6.64509,6.95759 -3.03421,2.01958 -6.29972,3.1898 -9.99104,3.58034 -0.64531,0.0683 -2.75972,0.12526 -3.25791,0.0878 z m 2.99507,-5.13594 c 3.05083,-0.35688 5.81319,-1.44744 8.25335,-3.25839 0.71576,-0.53119 2.2194,-1.98248 2.91977,-2.81811 1.87735,-2.23991 3.15407,-5.13169 3.64419,-8.25412 0.13193,-0.84053 0.18199,-2.98195 0.0934,-3.99685 -0.17668,-2.0247 -0.83049,-4.30488 -1.75471,-6.11961 -0.79968,-1.5702 -1.70706,-2.79031 -3.1431,-4.22636 -1.79507,-1.7950996 -3.43862,-2.9005796 -5.57266,-3.7482696 -4.07104,-1.6171 -8.56979,-1.61783 -12.6676,-0.002 -3.41995,1.34851 -6.56081,4.1199696 -8.41386,7.4243096 -1.12676,2.00923 -1.80704,4.21249 -2.05688,6.66179 -0.0915,0.8967 -0.0376,3.1317 0.096,3.98794 0.43462,2.78353 1.39816,5.17647 3.00324,7.45846 0.42965,0.61085 0.8062,1.03532 1.80021,2.02933 1.34123,1.34123 2.07178,1.91748 3.42938,2.70506 2.02098,1.17243 4.62684,2.00045 6.94576,2.20704 0.70775,0.0631 2.70581,0.0338 3.42344,-0.0502 z"
     id="path199" />
  <path
     style="fill:#ffffff;stroke-width:0.0611961"
     d="m 19.394291,29.117225 c -0.11367,-0.0381 -0.33949,-0.19504 -0.50183,-0.34881 -0.18064,-0.17112 -1.31765,-1.77303 -2.93059,-4.12886 -2.82492,-4.12602 -2.86975,-4.20329 -2.7967,-4.82015 0.10492,-0.88581 0.77121,-1.51705 1.60131,-1.51705 0.40126,0 0.74048,0.12389 1.04033,0.37995 0.10097,0.0862 1.03727,1.42507 2.08067,2.97522 1.04339,1.55015 1.91396,2.81946 1.9346,2.8207 0.0206,0.001 0.19958,-0.26625 0.39764,-0.59441 0.6469,-1.07185 0.97545,-1.32738 1.7067,-1.32738 0.73158,0 1.07793,0.26971 1.71306,1.33403 0.19365,0.3245 0.36935,0.58889 0.39045,0.58752 0.0211,-0.001 1.4015,-1.96095 3.06756,-4.35463 1.66607,-2.39368 3.10617,-4.44231 3.20023,-4.55251 0.24454,-0.28651 0.73372,-0.51457 1.10371,-0.51457 0.44914,0 0.75402,0.11512 1.07924,0.40752 0.58385,0.52494 0.75242,1.36379 0.41112,2.04581 -0.27545,0.55042 -7.59712,10.94868 -7.92663,11.25742 -0.44815,0.41991 -0.96899,0.52908 -1.56132,0.32725 -0.36308,-0.12371 -0.68343,-0.45062 -1.09773,-1.12021 -0.17517,-0.28311 -0.34345,-0.51719 -0.37395,-0.52017 -0.0305,-0.003 -0.20068,0.22866 -0.37818,0.51476 -0.38813,0.62558 -0.64972,0.91241 -0.97509,1.06919 -0.28628,0.13794 -0.88911,0.17833 -1.1846,0.0794 z"
     id="path238" />
</svg>
